<svg width="32" height="25" viewBox="0 0 32 25" fill="none" xmlns="http://www.w3.org/2000/svg">
<path d="M31.3191 11.3075L20.5111 0.494999C19.8488 -0.165 18.7815 -0.165 18.1241 0.494999C17.4592 1.155 17.4592 2.225 18.1241 2.885L26.0476 10.815H1.68468C0.752358 10.81 0 11.565 0 12.5C0 13.43 0.752358 14.1875 1.68468 14.1875H26.0451L18.1215 22.1175C17.4568 22.7775 17.4568 23.8425 18.1215 24.5075C18.449 24.835 18.8839 25 19.3139 25C19.7463 25 20.1788 24.835 20.5111 24.5075L31.3216 13.6925C31.9765 13.0325 31.9765 11.965 31.3191 11.3075Z" fill="#2F3A41"/>
</svg>
